{
  "accessors": [
    {
      "bufferView": 2,
      "componentType": 5126,
      "count": 8222,
      "max": [
        0.15199999511241913,
        0.10499999672174454,
        3.4924596548080444e-9
      ],
      "min": [
        -0.15200001001358032,
        -0.09603267908096313,
        -0.009755848906934261
      ],
      "type": "VEC3",
      "byteOffset": 0
    },
    {
      "bufferView": 2,
      "byteOffset": 98664,
      "componentType": 5126,
      "count": 8222,
      "max": [
        1,
        1,
        1
      ],
      "min": [
        -1,
        -1,
        -1
      ],
      "type": "VEC3"
    },
    {
      "bufferView": 1,
      "componentType": 5126,
      "count": 8222,
      "max": [
        0.9837092757225037,
        0.9981542825698853
      ],
      "min": [
        0.009269103407859802,
        0.024381175637245178
      ],
      "type": "VEC2",
      "byteOffset": 0
    },
    {
      "bufferView": 0,
      "componentType": 5125,
      "count": 24492,
      "type": "SCALAR",
      "byteOffset": 0
    },
    {
      "bufferView": 2,
      "byteOffset": 197328,
      "componentType": 5126,
      "count": 203,
      "max": [
        0.15200001001358032,
        0.19908371567726135,
        0.006765663158148527
      ],
      "min": [
        -0.15199998021125793,
        -0.0019489675760269165,
        -0.004622588865458965
      ],
      "type": "VEC3"
    },
    {
      "bufferView": 2,
      "byteOffset": 199764,
      "componentType": 5126,
      "count": 203,
      "max": [
        1,
        1,
        1
      ],
      "min": [
        -1,
        -1,
        -1
      ],
      "type": "VEC3"
    },
    {
      "bufferView": 1,
      "byteOffset": 65776,
      "componentType": 5126,
      "count": 203,
      "max": [
        0.984298586845398,
        0.9950575828552246
      ],
      "min": [
        0.012971997261047363,
        0.006867029704153538
      ],
      "type": "VEC2"
    },
    {
      "bufferView": 0,
      "byteOffset": 97968,
      "componentType": 5125,
      "count": 474,
      "type": "SCALAR"
    }
  ],
  "asset": {
    "extras": {
      "author": "Aullwen (https://sketchfab.com/Aullwen)",
      "license": "CC-BY-4.0 (http://creativecommons.org/licenses/by/4.0/)",
      "source": "https://sketchfab.com/3d-models/laptop-7d870e900889481395b4a575b9fa8c3e",
      "title": "Laptop"
    },
    "generator": "Sketchfab-12.68.0",
    "version": "2.0"
  },
  "bufferViews": [
    {
      "buffer": 0,
      "byteLength": 99864,
      "name": "floatBufferViews",
      "target": 34963,
      "byteOffset": 0
    },
    {
      "buffer": 0,
      "byteLength": 67400,
      "byteOffset": 99864,
      "byteStride": 8,
      "name": "floatBufferViews",
      "target": 34962
    },
    {
      "buffer": 0,
      "byteLength": 202200,
      "byteOffset": 167264,
      "byteStride": 12,
      "name": "floatBufferViews",
      "target": 34962
    },
    {
      "buffer": 0,
      "byteOffset": 369464,
      "byteLength": 78353
    },
    {
      "buffer": 0,
      "byteOffset": 447824,
      "byteLength": 72183
    },
    {
      "buffer": 0,
      "byteOffset": 520008,
      "byteLength": 7579
    },
    {
      "buffer": 0,
      "byteOffset": 527592,
      "byteLength": 3341
    },
    {
      "buffer": 0,
      "byteOffset": 530936,
      "byteLength": 5366
    }
  ],
  "buffers": [
    {
      "name": "output",
      "byteLength": 536304,
      "uri": "data:application/octet-stream;base64,"
    }
  ],
  "images": [
    {
      "name": "ComputerFrame_baseColor",
      "bufferView": 3,
      "mimeType": "image/png"
    },
    {
      "name": "ComputerFrame_emissive",
      "bufferView": 4,
      "mimeType": "image/png"
    },
    {
      "name": "ComputerScreen_baseColor",
      "bufferView": 5,
      "mimeType": "image/png"
    },
    {
      "name": "ComputerScreen_metallicRoughness",
      "bufferView": 6,
      "mimeType": "image/png"
    },
    {
      "name": "ComputerScreen_emissive",
      "bufferView": 7,
      "mimeType": "image/png"
    }
  ],
  "materials": [
    {
      "doubleSided": true,
      "emissiveFactor": [
        1,
        1,
        1
      ],
      "emissiveTexture": {
        "index": 1,
        "texCoord": 0
      },
      "name": "ComputerFrame",
      "pbrMetallicRoughness": {
        "baseColorTexture": {
          "index": 0,
          "texCoord": 0
        },
        "metallicFactor": 0,
        "baseColorFactor": [
          1,
          1,
          1,
          1
        ],
        "roughnessFactor": 1
      },
      "alphaMode": "OPAQUE"
    },
    {
      "doubleSided": true,
      "emissiveFactor": [
        1,
        1,
        1
      ],
      "emissiveTexture": {
        "index": 4,
        "texCoord": 0
      },
      "name": "ComputerScreen",
      "pbrMetallicRoughness": {
        "baseColorTexture": {
          "index": 2,
          "texCoord": 0
        },
        "metallicFactor": 0,
        "metallicRoughnessTexture": {
          "index": 3,
          "texCoord": 0
        },
        "baseColorFactor": [
          1,
          1,
          1,
          1
        ],
        "roughnessFactor": 1
      },
      "alphaMode": "OPAQUE"
    }
  ],
  "meshes": [
    {
      "name": "Frame_ComputerFrame_0",
      "primitives": [
        {
          "attributes": {
            "NORMAL": 1,
            "POSITION": 0,
            "TEXCOORD_0": 2
          },
          "indices": 3,
          "material": 0,
          "mode": 4
        }
      ]
    },
    {
      "name": "Screen_ComputerScreen_0",
      "primitives": [
        {
          "attributes": {
            "NORMAL": 5,
            "POSITION": 4,
            "TEXCOORD_0": 6
          },
          "indices": 7,
          "material": 1,
          "mode": 4
        }
      ]
    }
  ],
  "nodes": [
    {
      "children": [
        1
      ],
      "matrix": [
        1,
        0,
        0,
        0,
        0,
        2.220446049250313e-16,
        -1,
        0,
        0,
        1,
        2.220446049250313e-16,
        0,
        0,
        0,
        0,
        1
      ],
      "name": "Sketchfab_model"
    },
    {
      "children": [
        2
      ],
      "matrix": [
        1,
        0,
        0,
        0,
        0,
        0,
        1,
        0,
        0,
        -1,
        0,
        0,
        0,
        0,
        0,
        1
      ],
      "name": "6d4c164f62674ba9b12714fec0584379.fbx"
    },
    {
      "children": [
        3,
        5
      ],
      "name": "RootNode"
    },
    {
      "children": [
        4
      ],
      "matrix": [
        100,
        0,
        0,
        0,
        0,
        -0.00001629206793918314,
        -99.99999999999868,
        0,
        0,
        99.99999999999868,
        -0.00001629206793918314,
        0,
        0,
        0.9755473732948303,
        0,
        1
      ],
      "name": "Frame"
    },
    {
      "mesh": 0,
      "name": "Frame_ComputerFrame_0"
    },
    {
      "children": [
        6
      ],
      "matrix": [
        -99.99999999998712,
        0.00003258412842991097,
        0.000038941437775530106,
        0,
        0.000032584122085542866,
        99.99999999999336,
        -0.000016292079875223588,
        0,
        -0.00003436009841184489,
        -0.000014375354057900743,
        -88.23529815673042,
        0,
        2.768618667658984e-13,
        0.6500000357627869,
        -10.30000114440918,
        1
      ],
      "name": "Screen"
    },
    {
      "mesh": 1,
      "name": "Screen_ComputerScreen_0"
    }
  ],
  "samplers": [
    {
      "magFilter": 9729,
      "minFilter": 9987,
      "wrapS": 10497,
      "wrapT": 10497
    }
  ],
  "scene": 0,
  "scenes": [
    {
      "name": "Sketchfab_Scene",
      "nodes": [
        0
      ]
    }
  ],
  "textures": [
    {
      "sampler": 0,
      "source": 0
    },
    {
      "sampler": 0,
      "source": 1
    },
    {
      "sampler": 0,
      "source": 2
    },
    {
      "sampler": 0,
      "source": 3
    },
    {
      "sampler": 0,
      "source": 4
    }
  ]
}
